# xmcd
#
# Track frame offsets:
#	150
#	17727
#	31785
#	51130
#	70220
#	87620
#	108097
#	122977
#	142325
#	161052
#	179820
#	199852
#	219767
#
# Disc length: 3156 seconds
#
# Revision: 1
# Processed by: cddbd v1.5.2PL0 Copyright (c) Steve Scherf et al.
# Submitted via: audiograbber 1.83.01
#
DISCID=c00c520d
DTITLE=Ne-Yo - Year Of The Gentleman
DYEAR=2008
DGENRE=R&B
TTITLE0=Closer
TTITLE1=Nobody
TTITLE2=Single
TTITLE3=Mad
TTITLE4=Miss Independent
TTITLE5=Why Does She Stay
TTITLE6=Fade Into The Background
TTITLE7=So You Can Cry
TTITLE8=Part Of The List
TTITLE9=Back To What You Know
TTITLE10=Lie To Me
TTITLE11=Stop This World
TTITLE12=What's The Matter
EXTD=
EXTT0=
EXTT1=
EXTT2=
EXTT3=
EXTT4=
EXTT5=
EXTT6=
EXTT7=
EXTT8=
EXTT9=
EXTT10=
EXTT11=
EXTT12=
PLAYORDER=
